<svg width="24" height="25" viewBox="0 0 24 25" fill="none" xmlns="http://www.w3.org/2000/svg">
<g id="Frame">
<path id="Vector" d="M16.7116 5.0523C17.3114 5.4217 17.8658 5.86001 18.3636 6.35831C18.8736 6.86831 19.3076 7.42231 19.6696 8.01031M16.7116 5.0523L13.2636 9.19031M16.7116 5.0523C15.2937 4.18285 13.6629 3.72266 11.9996 3.72266C10.3364 3.72266 8.70556 4.18285 7.28765 5.0523M19.6696 8.01031L15.5316 11.4583M19.6696 8.01031C20.5391 9.42822 20.9993 11.059 20.9993 12.7223C20.9993 14.3856 20.5391 16.0164 19.6696 17.4343M13.2636 9.19031C13.7859 9.37701 14.26 9.67761 14.6516 10.0703C15.0444 10.4619 15.345 10.9361 15.5316 11.4583M13.2636 9.19031C12.4462 8.89895 11.5531 8.89895 10.7356 9.19031M7.28765 5.0523L10.7356 9.19031M7.28765 5.0523C6.6879 5.42167 6.13346 5.85999 5.63565 6.35831C5.13734 6.85612 4.69902 7.41056 4.32965 8.01031M15.5316 11.4583C15.823 12.2758 15.823 13.1688 15.5316 13.9863M19.6696 17.4343L15.5316 13.9863M19.6696 17.4343C19.3003 18.034 18.8619 18.5885 18.3636 19.0863C17.8536 19.5963 17.2996 20.0303 16.7116 20.3923M15.5316 13.9863C15.3506 14.4923 15.0566 14.9683 14.6516 15.3743C14.26 15.767 13.7859 16.0676 13.2636 16.2543M10.7356 9.19031C10.2134 9.37698 9.73926 9.67758 9.34765 10.0703C8.94265 10.4763 8.64865 10.9523 8.46765 11.4583M13.2636 16.2543L16.7116 20.3923M13.2636 16.2543C12.4462 16.5457 11.5531 16.5457 10.7356 16.2543M16.7116 20.3923C15.2937 21.2618 13.6629 21.722 11.9996 21.722C10.3364 21.722 8.70556 21.2618 7.28765 20.3923M7.28765 20.3923L10.7356 16.2543M7.28765 20.3923C6.6879 20.0229 6.13346 19.5846 5.63565 19.0863C5.13735 18.5885 4.69904 18.034 4.32965 17.4343M10.7356 16.2543C10.2134 16.0676 9.73926 15.767 9.34765 15.3743C8.95495 14.9827 8.65435 14.5085 8.46765 13.9863M8.46765 13.9863L4.32965 17.4343M8.46765 13.9863C8.17629 13.1688 8.17629 12.2758 8.46765 11.4583M4.32965 17.4343C3.46019 16.0164 3 14.3856 3 12.7223C3 11.059 3.46019 9.42822 4.32965 8.01031M4.32965 8.01031L8.46765 11.4583" stroke="#989898" stroke-width="1.5" stroke-linecap="round" stroke-linejoin="round"/>
</g>
</svg>
